<?xml version="1.0" standalone="no"?>
<!DOCTYPE svg PUBLIC "-//W3C//DTD SVG 20010904//EN"
 "http://www.w3.org/TR/2001/REC-SVG-20010904/DTD/svg10.dtd">
<svg version="1.0" xmlns="http://www.w3.org/2000/svg"
 width="500.000000pt" height="500.000000pt" viewBox="0 0 500.000000 500.000000"
 preserveAspectRatio="xMidYMid meet">
<metadata>
Created by potrace 1.14, written by Peter Selinger 2001-2017
</metadata>
<g transform="translate(0.000000,500.000000) scale(0.100000,-0.100000)"
fill="#000000" stroke="none">
<path d="M0 2500 l0 -2500 2500 0 2500 0 0 2500 0 2500 -2500 0 -2500 0 0
-2500z m3364 1021 c80 -26 135 -58 189 -110 204 -195 179 -570 -50 -727 -87
-60 -167 -84 -296 -91 -59 -3 -110 -10 -113 -14 -2 -5 33 -46 78 -91 46 -46
138 -155 205 -243 123 -163 226 -275 315 -346 l50 -39 -92 0 c-76 0 -99 4
-126 21 -52 32 -155 149 -301 343 -158 208 -245 304 -307 337 -25 13 -47 21
-49 19 -2 -3 -87 -240 -188 -527 l-184 -523 -46 0 -46 0 -155 347 c-85 191
-163 352 -172 358 -13 7 -20 6 -29 -6 -7 -9 -66 -170 -132 -358 l-120 -341
-45 0 -45 0 -374 838 c-205 460 -376 843 -378 850 -4 9 14 12 68 12 l74 0 274
-618 c414 -931 401 -902 421 -902 21 0 20 -5 126 360 60 203 78 279 77 325 0
56 -12 87 -171 442 -95 211 -172 385 -172 388 0 3 33 5 73 5 l72 0 126 -283
c102 -230 129 -282 145 -282 16 0 30 37 100 280 l82 280 71 3 c39 2 71 -1 71
-6 0 -5 -54 -164 -121 -353 -110 -312 -121 -349 -117 -399 3 -44 35 -123 160
-405 172 -387 182 -401 212 -308 18 57 236 820 236 828 0 3 -11 5 -25 5 -38 0
-32 28 7 32 l32 3 86 300 86 300 72 3 c40 2 72 -1 72 -5 0 -7 -184 -533 -205
-585 -7 -17 2 -18 104 -18 181 0 314 37 404 110 177 148 192 475 29 643 -103
106 -205 136 -499 144 -177 5 -213 8 -213 20 0 13 41 14 293 11 269 -4 297 -6
361 -27z"/>
</g>
</svg>
